<?xml version="1.0" encoding="UTF-8"?>
<svg id="carnival_plant" data-name="🌿 carnival plant" xmlns="http://www.w3.org/2000/svg" viewBox="0 0 1660.79 1660.76">
  <defs>
    <style>
      .carnplant1 {
        fill: #f6a7bf;
      }

      .carnplant1, .carnplant2, .carnplant3, .carnplant4, .carnplant5, .carnplant6, .carnplant7, .carnplant8 {
        stroke: #231f20;
        stroke-miterlimit: 10;
        stroke-width: 3px;
      }

      .carnplant9 {
        fill: #5aad46;
      }

      .carnplant2 {
        fill: #87c340;
      }

      .carnplant10 {
        fill: #e7a7cb;
        opacity: .21;
      }

      .carnplant11, .carnplant6 {
        fill: #8bc540;
      }

      .carnplant12 {
        fill: #f38cac;
        opacity: .5;
      }

      .carnplant3 {
        fill: #9c4622;
      }

      .carnplant4 {
        fill: #ec2450;
      }

      .carnplant13 {
        fill: #89181b;
      }

      .carnplant14, .carnplant7 {
        fill: #51a146;
      }

      .carnplant5 {
        fill: #c64499;
      }

      .carnplant8 {
        fill: #e6e7e8;
      }
    </style>



    <script>
          console.log('JavaScript is runing!');

      //for shorter coment note
      /* longer js coment
      - const is atype of variable - a bit of memory that can hold a value 

      JS Uses (can use) ANY valid selector to make a connection to ANY element on the page - it works the same way as CSS, ]
      selectors do, because its USING css selectors to find matching element(s).

      the document is the DOM - the web page and all of its elements 
      */

      //step 1 - make the connection to the elements you want to interact with
      //const jpgGraphic = document.querySelector("#bitmap");

      const icon007 = document.querySelector("#carnival_plant");

      //here calls the elements, selectors


      //here defines the function
      function logthisID(){
          console.log('clicked in this element', this.id);
      }


      //step 2 - decide how you want the user to interact with the object you created in step 1

      icon007.addEventListener('click', logthisID);

      //here its the items calling the function to be applied


      </script>






  </defs>
  <g id="carnvbackleaves">
    <g id="leavesgreenlight">
      <path class="carnplant2" d="m923.68,177.91s93.58-147.08,118-153.86c18.18-5.05,93.55,89.25,124.66,165.99,10.66,26.29,16.13,50.53,12.32,68-14.92,68.46-32.55,22.35-32.55,22.35l-239.08-75.95,16.65-26.53Z"/>
      <path class="carnplant2" d="m1420.16,140.69s-188.17-1.66-253.82,49.35c-65.65,51.01,46.23,177.62,46.23,177.62l89.51,63.27,35.26-43.4s97.82-138.34,82.82-246.84Z"/>
      <path class="carnplant2" d="m1390.24,600.46s105.79-13.56,151.9-97.65c46.11-84.09,56.96-155.97,56.96-155.97,0,0-195.3-36.62-264.47-9.49s-113.93,135.63-113.93,135.63l111.21,118,58.32,9.49Z"/>
      <path class="carnplant2" d="m1232.91,734.74s184.45,100.36,309.23,47.47c124.78-52.89,107.15-47.47,107.15-47.47,0,0-74.6-151.9-180.38-187.17-105.79-35.26-215.65,52.89-215.65,52.89l-73.38,84.09,53.04,50.18Z"/>
      <path class="carnplant2" d="m1346.64,761.9c120.03-25.43,199.57,192.55,183.29,222.39s-237.35,25.77-322.79-43.4c-85.45-69.17-47.47-150.24-47.47-150.24,0,0,66.94-3.32,186.97-28.75Z"/>
      <path class="carnplant2" d="m1036.25,991.07s113.93,180.38,184.45,174.96c70.53-5.43,96.3-264.47,96.3-264.47l-280.75,89.51Z"/>
      <path class="carnplant9" d="m1078.27,1003.88s79.83,126.39,129.24,122.59c49.42-3.8,28.52-200.6,28.52-200.6l-157.76,78.01Z"/>
    </g>
    <g id="leavesgreenldark">
      <path class="carnplant9" d="m962.29,172.04s63.41-99.66,79.96-104.26c12.32-3.42,63.39,60.48,84.48,112.48,7.22,17.82,10.93,34.24,8.35,46.08-10.11,46.39-22.06,15.14-22.06,15.14l-162.01-51.47,11.28-17.98Z"/>
      <path class="carnplant9" d="m1385.16,177.91s-139.9-1.23-188.71,36.69c-48.81,37.93,34.37,132.06,34.37,132.06l66.55,47.04,26.22-32.27s72.73-102.86,61.57-183.53Z"/>
      <path class="carnplant9" d="m1394.54,570.61s82.66-10.6,118.69-76.3c36.03-65.71,44.51-121.87,44.51-121.87,0,0-152.61-28.61-206.65-7.42-54.05,21.2-89.02,105.98-89.02,105.98l86.9,92.2,45.57,7.42Z"/>
      <path class="carnplant9" d="m1277.13,718.63s139.67,76,234.15,35.94c94.48-40.05,81.13-35.94,81.13-35.94,0,0-56.48-115.02-136.59-141.72-80.1-26.7-163.29,40.05-163.29,40.05l-55.57,63.67,40.16,38Z"/>
      <path class="carnplant9" d="m1358.87,763.41s145.44,103.46,130.5,196.51c-4.23,26.34-186.28,20.22-253.34-34.06-67.06-54.29-37.26-117.91-37.26-117.91l160.1-44.54Z"/>
    </g>
  </g>
  <g id="flowerrsup">
    <path class="carnplant6" d="m691.34,1335.77s29.06-51.5-19.79-109.82c-38.85-46.38,164.81,27.8,164.81,27.8l30.79,133.58-175.82-51.56Zm388.54,6.2s-32.55-66.81,0-124.12c17.33-30.51-165.65,48.29-165.65,48.29l-17.83,118.66,183.47-42.83Z"/>
    <path class="carnplant9" d="m726.63,1323.22s21.1-28.3-3.43-66.52c-19.51-30.4,95.5,28.9,95.5,28.9l8.15,81.42-100.22-43.8Zm288.5,9.58s-18.63-38.24,0-71.04c9.92-17.47-94.81,27.64-94.81,27.64l-10.2,67.92,105.02-24.51Z"/>
    <path class="carnplant6" d="m738.31,1550s-29.86-126.66-154.21-191.93c-229.62-120.53-21.7-212.15-21.7-212.15,0,0,12.01,103.88,75.35,125.46,164.24,55.95,229.41,115.95,229.41,115.95l-128.85,162.67Zm326.59-195.32s116.64,9.81,149.19-3.96c56.98-24.11,41.73-113.18,41.73-113.18,0,0-49.19,45.36-106.83,33.84-92.53-18.51-244.34,84.17-244.34,84.17l160.25-.87Z"/>
    <path class="carnplant7" d="m831.79,1172.21c15.94-75.76,61.04-114.48,61.04-114.48l162.1-43.23-113.47,181.01s-13.47,87.85-14.86,132.38c-1.39,44.53-59.44,59.44-59.44,59.44,0,0-37.51,1.76-46.39-33.21-10.85-42.72-3.6-112.4,11.02-181.91Z"/>
    <path class="carnplant11" d="m894.37,1058.49s-81.39,52.72-77.12,276.23c2.94,153.78,90.74,62.88,90.74,62.88l-26.89-65.22s-5.18-60.68,12.74-132.38c17.92-71.7,107.99-198.1,107.99-198.1l-107.47,56.58Z"/>
  </g>
  <path id="carnvheadglight" class="carnplant6" d="m440.1,908.61s70.64,131.47,366.31,147.75c16.62.91,100.3,2.98,128.83-3.42,170.97-38.31,481.44-168.79,492.46-394.16,12.16-248.55-162.92-404.79-462.58-475.49-373.2-88.05-566.39,184.44-565.26,185.38.31.26,1.61-1.88,1.73-1.78.46.36-21.18,22.57-16.72,29.83,1.27,2.07,5.13,3.68,16.72,1.35,0,0,24.72-21.74,59.24-55.52,53.76-52.62,136.56-34.25,238.26-37.69,203.26-6.87,293.66,99.96,334.18,264.76,16.59,201.64-74.75,310.05-230.99,372.83-156.25,62.77-340.41-44.58-340.41-44.58l-21.77,10.73Z"/>
  <path id="carnvheadgdark" class="carnplant14" d="m1028.2,315.14c143.33,71.25,271.18,178.85,228.1,392.89-38.27,190.19-268.04,281.77-268.04,281.77,0,0-173.84,51.12-311.61,6.69-137.77-44.43-166.35-81.54-166.35-81.54,0,0,129.88,74.78,350.06-23.83,196.07-87.81,185.06-237.74,152.21-357.9-25.21-92.21-74.97-174.26-274.56-210.73-199.58-36.47-297.92,37.76-297.92,37.76,0,0,225.49-225.37,588.1-45.11Z"/>
  <path id="jar" class="carnplant3" d="m1236.03,1344.5c-106.23,0-580.05-7.34-658.44,0-78.39,7.34,7.87,118.12,28.9,120.04,3.14.29,17.9.75,40.82,1.28-2.02,41.67-1.8,117.01,25.9,120.62,38.38,5.01,398.82,19.4,440.35,0,28.53-13.33,22.15-78.09,15.35-117.32,36.29-.86,60.56-2.32,65.11-4.59,23.33-11.64,148.24-120.04,42.02-120.04Z"/>
  <g id="carnvmouth">
    <path id="carnivgum" class="carnplant13" d="m853.46,471.79s101.77,117.43,76.13,235.18c-19.92,91.48-114.44,185.13-158.68,183.1-44.24-2.03-155.68,47.46-225.82,11.49-70.13-35.97-55.94-343.1-55.94-343.1,0,0,72.23-166.06,102.73-164.75,188.68,8.1,261.58,78.08,261.58,78.08Z"/>
    <path id="carnivplanttongue" class="carnplant5" d="m907.03,753.84s-213.49-246.8-456.26-128.17c-233.84,114.27-218.93,229.9-345.51,166.71-80.49-40.18-54.25-100.82-29.84-129.75,16.13-19.11,111.01-87.21,133.82-4.07,15.54,56.63-25.35,62.2-25.35,62.2,0,0-51.05,16.5-35.23,19.63,20.22,3.99,116.64-23.96,89.97-77.31-17.51-35.01-49.16-87.57-126.13-64.65-73.24,21.81-98.65,67.75-101.72,125.68-3.62,68.27,69.74,150.25,150.09,146.84,80.36-3.4,232.37-102.09,306.06-148.79,46.77-29.65,287.33-64.14,384.29,105.32"/>
    <path id="carnivplanttonguelight" class="carnplant10" d="m877.83,811.4s-118.99-139.45-217.12-142.98c-67.75-2.44-107.4-3.47-146.18,5.69-26.09,6.16-152.46,57.86-226.45,129.83-33,32.1-74.6,32.55-74.6,32.55,0,0-74.6,21.25-46.57,8.14,169.53-89.51,207.72-167.73,291.93-193.95,84.21-26.22,186.32-23.15,208.99-20.75,64.76,6.85,126.55,45.9,150.55,65.51,153.48,125.46,59.45,115.96,59.45,115.96Z"/>
    <g id="carnivtooth">
      <path class="carnplant8" d="m429.8,464.1c-4.57,6.81-10.17,21.44-2.69,66.69,6.68,40.34,5.5,39.22,23.71,57.5,12.58,12.63,36.36,28.76,41.37,27.69,16.37-3.49-11.64-73.4,32.46-126.17,20.8-24.88,27.67-63.29,27.83-65.09.13-1.51-36.55-2.9-122.68,39.37Z"/>
      <path class="carnplant8" d="m432.78,826.2s-.32-80.9,37.27-111.21c42.04-33.91,42.72-25.77,42.72-25.77,0,0-16.95,50.22,2.03,67.81,17.78,16.47-10.32,26.97,41.13,95.38,15.69,20.87-123.15-26.21-123.15-26.21Z"/>
      <path class="carnplant8" d="m567.51,850.97s-3.58-89.51,31.19-132.24c25.87-31.78,37.48-30.73,37.48-30.73,0,0,0,43.94,10.86,82.59,6.56,23.33,21.35,29.43,50.18,88.84,20.07,41.37-129.72-8.46-129.72-8.46Z"/>
      <path class="carnplant8" d="m720.29,873.13s-20.49-109.49,28.68-162.89c36.22-39.33,41.33-16.95,41.33-16.95,0,0-9.76,35.48,5.26,64.42,16.28,31.35-3.24,20.62,48.83,77.99,11.43,12.59-124.1,37.44-124.1,37.44Z"/>
      <path class="carnplant8" d="m708.76,424.74c-4.59-.83-20.85,52.58-10.66,113.68,2.83,16.95,21.85,28.44,30.32,50.08,6.5,16.6,26.87,28.49,31.87,27.42,16.37-3.49-5.43-59.62,25.09-115.42,15.56-28.45,20.86-35.57,21.02-37.36.13-1.51-30.52-32.97-97.65-38.4Z"/>
      <path class="carnplant8" d="m567.4,430.17c-4.57,6.81-15.76,21.61-10.23,67.14,3.2,26.36,16.43,55.41,30.2,86.12,7.29,16.27,33.65,39.04,38.65,37.98,16.37-3.49-5.68-85.65,37.3-139.34,12.73-15.91,35.6-58.24,35.76-60.03.13-1.51-65.9,6.1-131.68,8.14Z"/>
    </g>
    <path id="carnivlips" class="carnplant4" d="m525.02,823.99c59.4-23.1,300.04,125.26,375.86-84.56,76.04-210.41-155.47-326.9-257.19-309.27-101.72,17.63-120.03,0-120.03,0l-102.21-60.89s58.56-113.12,401.34-81.36c142.34,13.19,255.48,164.75,255.49,349.93,0,135.2-42.02,263.71-306.01,309.86-198.98,34.78-305.84-50.18-305.84-50.18l58.6-73.53Z"/>
    <path id="carnivlips-2" data-name="carnivlips" class="carnplant12" d="m505.87,829.18c50.34-19.58,320.99,130.98,400.41-69.34,91.11-229.8-157.87-361.04-239.66-343.79-84.82,17.89-161.86,8.69-161.86,8.69l-54.31-34.93s77.01-83.68,355.95-62.46c120.81,9.19,222.54,151.47,222.54,308.42,0,114.59-31.29,233.19-255.04,272.3-168.64,29.48-282.08-32.21-282.08-32.21l14.04-46.67Z"/>
    <path class="carnplant1" d="m523.66,430.17s-128.17-95.34-154.62-63.27c-26.45,32.08-44.76,64.79,0,96.24,44.76,31.45,154.62-32.97,154.62-32.97Z"/>
    <path class="carnplant1" d="m525.02,823.99s-175.74-19.39-182.02,26.46c-6.29,45.85-4.55,87.72,55.75,92.71,60.3,4.99,126.28-119.18,126.28-119.18Z"/>
  </g>
</svg>