<?xml version="1.0" encoding="UTF-8"?>
<svg id="radio_new" xmlns="http://www.w3.org/2000/svg" viewBox="0 0 1606.85 1601.2">
  <defs>
    <style>
      .radioglow1 {
        stroke: #27aae1;
      }

      .radioglow1, .radioglow2, .radioglow3, .radioglow4 {
        fill: none;
        stroke-miterlimit: 10;
        stroke-width: 10px;
      }

      .radioglow2 {
        stroke: #ee2a7b;
      }

      .radioglow3 {
        stroke: #00a651;
      }

      .radioglow4 {
        stroke: #662d91;
      }
    </style>
  </defs>
  <path id="speakers" class="radioglow1" d="m1396.16,1058.6c0-42.56-34.5-77.06-77.06-77.06s-77.06,34.5-77.06,77.06,34.5,77.06,77.06,77.06,77.06-34.5,77.06-77.06Zm150.65,0c0-125.76-101.95-227.71-227.71-227.71s-227.71,101.95-227.71,227.71,101.95,227.71,227.71,227.71,227.71-101.95,227.71-227.71Zm-1160.01,0c0-42.56-34.5-77.06-77.06-77.06s-77.06,34.5-77.06,77.06,34.5,77.06,77.06,77.06,77.06-34.5,77.06-77.06Zm150.65,0c0-125.76-101.95-227.71-227.71-227.71s-227.71,101.95-227.71,227.71,101.95,227.71,227.71,227.71,227.71-101.95,227.71-227.71Z"/>
  <path id="radioparts" class="radioglow3" d="m1033.44,1260.58h-436.36v-46.54h436.36v46.54Zm-16.09-28.75h-44.15v11.64h44.15v-11.64Zm-54.76,0h-64v11.64h64v-11.64Zm-78.72,0h-63.66v11.64h63.66v-11.64Zm-73.58,0h-67.08v11.64h67.08v-11.64Zm-76.66,0h-65.37v11.64h65.37v-11.64Zm-79.06,0h-45.52v11.64h45.52v-11.64Zm51.42-500.35c0-20.84-16.89-37.73-37.73-37.73s-37.73,16.89-37.73,37.73,16.89,37.73,37.73,37.73,37.73-16.89,37.73-37.73Zm-18.76-20.51c-10.75-8.43-23.2-8.43-23.2-8.43m-118.92,28.94c0-20.84-16.89-37.73-37.73-37.73s-37.73,16.89-37.73,37.73,16.89,37.73,37.73,37.73,37.73-16.89,37.73-37.73Zm-18.76-20.51c-10.75-8.43-23.2-8.43-23.2-8.43m-117.97,28.94c0-20.84-16.89-37.73-37.73-37.73s-37.73,16.89-37.73,37.73,16.89,37.73,37.73,37.73,37.73-16.89,37.73-37.73Zm-18.76-20.51c-10.75-8.43-23.2-8.43-23.2-8.43m-122.68,32.02c0-20.84-16.89-37.73-37.73-37.73s-37.73,16.89-37.73,37.73,16.89,37.73,37.73,37.73,37.73-16.89,37.73-37.73Zm-18.76-20.51c-10.75-8.43-23.2-8.43-23.2-8.43m1246.27,41.6c-58.41,0-105.75-47.35-105.75-105.75s47.35-105.75,105.75-105.75,105.75,47.35,105.75,105.75-47.35,105.75-105.75,105.75Zm72.67-101.3c3.76-23.27-2.43-48.55-19.51-61.95-30.12-23.61-65.03-23.61-65.03-23.61M108.03,420.04v-240.94h1416.87v240.94m-49.28,0v-167.01l-1319.68,6.84v160.17m1368.96,252.26h26.01v-183.46l-1473.34-4.12v187.57h1246.1"/>
  <path id="cyan" class="radioglow2" d="m1260.69,764.34h-167.01v-59.55h167.01v59.55Zm-968.54-218.01h-103.7v27.72h103.7v-27.72Zm-103.7,66.74h103.7v-27.72h-103.7v27.72Zm569.83,91.72h126.63m-126.63,26.69h126.63m-126.63,26.69h126.63m33.54-53.39h125.26m-122.52,26.69h122.52m-122.52,30.12h122.52m-688.59-225.88v83.51m863.13-39.02l-863.13-2.74m863.13-41.75v83.51m-52.02-83.51v41.75m-56.81-41.75v83.51m-52.02-83.51v41.75m-56.81-41.75v83.51m-55.44-83.51v43.62m-52.7-43.62v83.51m-52.02-83.51v41.75m-53.73-41.75v80.08m-55.1-80.08v41.75m-52.7-41.75v83.51m-55.1-83.51v43.12m-55.1-43.12v80.08m-52.02-80.08v42.27m-52.02-42.27v80.08m-56.13-80.08v41.75m241.96,521.92h-53.39v16.09h53.39v-16.09Zm102.33,16.09h-84.53v-16.09h84.53v16.09Zm103.36,0h-82.14v-16.09h82.14v16.09Zm106.44,0h-88.3v-16.09h88.3v16.09Zm70.84,0h-52.36v-16.09h52.36v16.09Zm-365.17,38.33h-51.68v-18.14h51.68v18.14Zm90.01,0h-73.24v-18.14h73.24v18.14Zm97.88,1.37h-82.14v-19.51h82.14v19.51Zm88.98-1.37h-74.27v-18.14h74.27v18.14Zm72.21,0h-54.76v-18.14h54.76v18.14Zm-42.44-131.08h-320.34v-102.67h320.34v102.67Zm-112.6-30.46h-94.46v-42.44h94.46v42.44Zm-148.12-.41c-9.6,0-17.39-7.79-17.39-17.39s7.79-17.39,17.39-17.39,17.39,7.79,17.39,17.39-7.79,17.39-17.39,17.39Zm0,15.24c-18.02,0-32.63-14.61-32.63-32.63s14.61-32.63,32.63-32.63,32.63,14.61,32.63,32.63-14.61,32.63-32.63,32.63Zm203.2-15.24c-9.6,0-17.39-7.79-17.39-17.39s7.79-17.39,17.39-17.39,17.39,7.79,17.39,17.39-7.79,17.39-17.39,17.39Zm0,15.24c-18.02,0-32.63-14.61-32.63-32.63s14.61-32.63,32.63-32.63,32.63,14.61,32.63,32.63-14.61,32.63-32.63,32.63Z"/>
  <path id="purple" class="radioglow4" d="m49.16,786.92h1530.5v520.2H49.16v-520.2Zm1530.5-335.39H49.16v913.1h1530.5V451.53Zm-529.79,616.37h-469.21v210.48h469.21v-210.48Zm0,210.48h-469.21v-451.76h469.21v451.76Zm0-210.48h-469.21v-186.86h469.21v186.86Zm-452.78,116.02h436.36"/>
</svg>