<?xml version="1.0" encoding="UTF-8"?>
<svg id="volumecontrol" xmlns="http://www.w3.org/2000/svg" xmlns:xlink="http://www.w3.org/1999/xlink" viewBox="0 0 2048 2048">
  <defs>
    <style>
      .volume1 {
        fill: #fff;
      }

      .volume1, .volume2 {
        stroke: #ed1c24;
        stroke-miterlimit: 10;
      }

      .volume3 {
        fill: url(#linear-gradient-2);
        filter: url(#outer-glow-1);
      }

      .volume4 {
        fill: url(#linear-gradient);
      }

      .volume2 {
        fill: #58595b;
      }
    </style>
    <linearGradient id="linear-gradient" x1="516.14" y1="411.42" x2="1518.86" y2="1659.86" gradientUnits="userSpaceOnUse">
      <stop offset="1" stop-color="#333132"/>
      <stop offset="1" stop-color="#0b0a0b"/>
      <stop offset="1" stop-color="#000"/>
    </linearGradient>
    <linearGradient id="linear-gradient-2" x1="200.78" y1="1024" x2="1815.51" y2="1024" gradientUnits="userSpaceOnUse">
      <stop offset="0" stop-color="#414042"/>
      <stop offset=".85" stop-color="#333133"/>
      <stop offset="1" stop-color="#333132"/>
      <stop offset="1" stop-color="#0b0a0b"/>
      <stop offset="1" stop-color="#000"/>
    </linearGradient>
    <filter id="outer-glow-1" filterUnits="userSpaceOnUse">
      <feOffset dx="0" dy="0"/>
      <feGaussianBlur result="blur" stdDeviation="5"/>
      <feFlood flood-color="#000" flood-opacity=".75"/>
      <feComposite in2="blur" operator="in"/>
      <feComposite in="SourceGraphic"/>
    </filter>
  </defs>
  <circle id="volumecontrol2" class="volume4" cx="1008.15" cy="1024" r="807.37"/>
  <path id="volumecontrol1" class="volume3" d="m1008.14,216.63c-445.89,0-807.36,361.47-807.36,807.37s361.47,807.37,807.36,807.37,807.37-361.47,807.37-807.37S1454.04,216.63,1008.14,216.63Zm563.83,1371.19c-73.24,73.24-158.51,130.73-253.46,170.89-98.3,41.58-202.72,62.66-310.37,62.66s-212.07-21.08-310.36-62.66c-94.95-40.16-180.23-97.65-253.46-170.89-73.23-73.23-130.73-158.5-170.89-253.45-41.57-98.3-62.65-202.72-62.65-310.37s21.08-212.07,62.65-310.37c40.16-94.95,97.66-180.22,170.89-253.45,73.23-73.24,158.51-130.73,253.46-170.89,98.29-41.58,202.72-62.66,310.36-62.66s212.07,21.08,310.37,62.66c94.95,40.16,180.22,97.65,253.46,170.89s130.72,158.5,170.88,253.45c41.58,98.3,62.66,202.72,62.66,310.37s-21.08,212.07-62.66,310.37c-40.16,94.95-97.65,180.22-170.88,253.45Z"/>
  <path id="volumepositions" class="volume2" d="m1811.84,456.85l-100.73,77.03c-10.73-2.22-18.61-16.91-15.86-21.09l102.48-75.35,14.1,19.41ZM1004.28,44.74l.72,127.2c1.76,4.69,18.28,6.94,26.38-.43l-3.11-126.77h-24ZM274.86,399.61l100.47,77.36c.63,10.94-11.52,22.36-16.27,20.78l-99.31-79.49,15.1-18.65Zm-205.58,817.77l123.35-29.4c8.9,6.39,10.13,23.02,5.91,25.72l-124.27,27.15-4.99-23.47Zm506.15,674.4l54.78-114.36c10.57-2.89,24.26,6.62,23.71,11.59l-57.1,113.66-21.38-10.9Zm842.64,31.06l-54.4-114.54c4.4-10.03,20.41-14.69,23.93-11.13l52.4,115.91-21.92,9.76Zm554.43-635.31l-123.25-29.81c-5.03-9.74,1.43-25.11,6.41-25.6l123.05,32.22-6.21,23.18Z"/>
  <path id="volumecontrolrot" class="volume1" d="m1042.6,216.63l5.54,369.24c-14.43,21.48-43.86,14.91-47,1.26l-1.29-370.51h42.75Z"/>
</svg>