<?xml version="1.0" encoding="UTF-8"?>
<svg id="icon_008_yoshi" xmlns="http://www.w3.org/2000/svg" xmlns:xlink="http://www.w3.org/1999/xlink" viewBox="0 0 1408.46 1566.47">
  <defs>
    <style>
      .cls-1 {
        stroke: url(#radial-gradient);
      }

      .cls-1, .cls-2, .cls-3, .cls-4, .cls-5, .cls-6, .cls-7 {
        stroke-miterlimit: 10;
      }

      .cls-1, .cls-3 {
        fill: none;
      }

      .cls-1, .cls-3, .cls-4, .cls-6, .cls-7 {
        stroke-width: 3px;
      }

      .cls-8 {
        fill: #fff;
      }

      .cls-2 {
        fill: url(#radial-gradient-2);
      }

      .cls-2, .cls-4, .cls-5, .cls-7 {
        stroke: #231f20;
      }

      .cls-3 {
        stroke: #58595b;
      }

      .cls-4 {
        fill: url(#radial-gradient-3);
      }

      .cls-5 {
        fill: #e35926;
      }

      .cls-6 {
        fill: #414042;
        stroke: #f15a29;
      }

      .cls-9 {
        fill: url(#linear-gradient);
      }

      .cls-10 {
        fill: #231f20;
      }

      .cls-7 {
        fill: #e6e7e8;
      }
    </style>
    <radialGradient id="radial-gradient" cx="704.23" cy="683.66" fx="704.23" fy="683.66" r="482.97" gradientUnits="userSpaceOnUse">
      <stop offset=".03" stop-color="#d9f1fd"/>
      <stop offset=".18" stop-color="#fff"/>
      <stop offset=".39" stop-color="#00aeef"/>
      <stop offset=".55" stop-color="#4892ae"/>
      <stop offset=".71" stop-color="#8a7974"/>
      <stop offset=".84" stop-color="#ba6849"/>
      <stop offset=".94" stop-color="#d85d2f"/>
      <stop offset="1" stop-color="#e35926"/>
    </radialGradient>
    <radialGradient id="radial-gradient-2" cx="708.59" cy="366.23" fx="708.59" fy="366.23" r="476" gradientUnits="userSpaceOnUse">
      <stop offset=".1" stop-color="#fff"/>
      <stop offset=".1" stop-color="#fff"/>
      <stop offset="1" stop-color="#e35926"/>
    </radialGradient>
    <linearGradient id="linear-gradient" x1="383.04" y1="593.32" x2="1026.11" y2="593.32" gradientUnits="userSpaceOnUse">
      <stop offset=".03" stop-color="#6cbe45"/>
      <stop offset=".49" stop-color="#e35926"/>
      <stop offset=".78" stop-color="#9c9438"/>
      <stop offset="1" stop-color="#6cbe45"/>
    </linearGradient>
    <radialGradient id="radial-gradient-3" cx="698.01" cy="1130.88" fx="698.01" fy="1130.88" r="437.71" gradientUnits="userSpaceOnUse">
      <stop offset="0" stop-color="#e35926"/>
      <stop offset=".48" stop-color="#a78b35"/>
      <stop offset="1" stop-color="#6cbe45"/>
    </radialGradient>
  </defs>
  <path id="headphonesoundeffect" class="cls-1" d="m146.89,754.91c-57.25-89.34-4.34-150.06-4.34-150.06m-57.25,20.82s-31.23,45.97,0,123.17m-46.84-101.49s-24.94,34.91,0,73.3m1334.52-66.82s15.61,31.23,3.47,65.92m-62.89-83.71s19.08,59.85,4.34,99.75m-62.45-118.4s44.24,76.77,2.6,145.29"/>
  <path id="headphnebase" class="cls-2" d="m338.72,262.72c-23.82-32.35-51.43-30.9-51.43-30.9l208.1-120.87c8.44-4.22,13.24-13.21,12.4-22.61-.92-10.39.56-25.47,11.1-42.58,24.03-39.03,314.45-4.26,350.63,0,22.12,2.6,38.1,34.26,37.38,54.23-.34,9.4,4.61,18.21,12.74,22.94l207.09,120.6s-33.06-6.94-61.15,18.22c-24.77,22.18-19.52,63.76-19.52,63.76,0,0-176.54-138.57-366.71-120.35-126.94,12.16-334.77,128.16-334.77,128.16,0,0,13.07-44.89-5.86-70.59Zm847.44,107.84c-13.54,13.48-70.26,1.73-70.26,1.73,0,0,70.26,55.51,102.36,104.96,32.09,49.44-41.64,165.68-53.78,176.09-12.14,10.41-4.34,27.76,6.07,45.97s28.62-12.14,32.09-21.69c3.47-9.54,85.87-131.85,87.61-195.17,1.73-63.32-83.27-181.29-83.27-181.29,4.34,34.7-3.89,52.54-20.82,69.39ZM247.39,645.19s13.66,24.72,8.46,37.73c-5.2,13.01-22.12,21.83-40.34-7.3-18.22-29.13-81.39-132.3-81.39-134.25s-16.26-26.67,0-65.06c16.26-38.38,93.97-196.35,93.97-196.35,0,0-10.84,60.95,3.04,73.74,13.88,12.79,52.91,17.12,71.13,10.18,18.22-6.94-101.77,74.04-98.89,152.13,1.87,50.54,44.02,129.17,44.02,129.17Z"/>
  <path id="lhears1" class="cls-5" d="m1125.01,763.38s32.1,26.95,53.89-3.95c20.49-29.06,24.12-190.72,3.58-206.01-16.98-12.65-41.64.43-41.64.43l-15.83,209.53Z"/>
  <path id="lhears3" class="cls-5" d="m1080.65,805.11s33.19,19.06,60.34-9.54c26.03-27.41,38.72-257.16,1.15-271.23-19.83-7.42-44.17,12.52-44.17,12.52l-17.32,268.25Z"/>
  <path id="lhears2" class="cls-5" d="m1003.57,544.31s57.25-55.06,88.48-13.45c31.23,41.62,23.51,248.31-11.39,283.21-32.2,32.2-79.25-17.35-79.25-17.35,26.2-26.39,2.17-252.42,2.17-252.42Z"/>
  <path id="r3" class="cls-5" d="m304.01,572.07s-13.91-23.2-53.37-10.84c-15.11,4.73-20.81,36-20.81,36,0,0-16.51,146.69,24.7,157.53,52.99,13.94,47.3,14.36,47.3,14.36l2.18-197.05Z"/>
  <path id="r2" class="cls-5" d="m342.16,552.55s-46.84-25.16-60.72,0c-13.88,25.16-9.61,200.85-3.47,212.08,8.24,15.07,42.94,29.58,55.95,9.63,13.01-19.95,8.24-221.71,8.24-221.71Z"/>
  <path id="r1" class="cls-5" d="m415.02,564.7s-20.82-39.43-57.25-32.49c-36.43,6.94-42.07,77.6-42.07,77.6,0,0-15.89,154.99,34.26,169.58,49.56,14.42,61.59-26.02,61.59-26.02l3.47-188.66Z"/>
  <path id="headphone_circles" class="cls-6" d="m1178.9,310.28c0,23.98-19.44,43.43-43.43,43.43s-43.43-19.44-43.43-43.43,19.44-43.43,43.43-43.43,43.43,19.44,43.43,43.43Zm-896.24-43.43c-23.98,0-43.43,19.44-43.43,43.43s19.44,43.43,43.43,43.43,43.43-19.44,43.43-43.43-19.44-43.43-43.43-43.43Z"/>
  <path id="eyes2" class="cls-9" d="m420.23,807.14s-43.37-83.27-36.43-158.74c6.94-75.47,51.86-178.52,63.32-202.11,6.95-14.3,38.6-64.19,123.17-63.32,73.07.75,109.61,51.49,123.47,77.26,3.19,5.93,11.59,6.2,15.18.51,16.95-26.85,57.89-87.89,109.43-88.18,80.45-.45,166.54,66.79,196.04,202.98,29.49,136.19-6.07,238.54-6.07,238.54l-588.11-6.94Z"/>
  <path id="eyes1" class="cls-7" d="m405.48,834.03s1.73-115.37,16.48-158.74c14.75-43.37,35.56-152.67,147.46-150.93,79.32,1.23,102.78,26.43,109.71,41,3.42,7.19,10.22,12.26,18.16,12.88,13.57,1.06,32.11-1.24,37.81-20.06,11.38-37.59,223.79-49.44,251.55,79.8,27.76,129.25-17.35,196.04-17.35,196.04H405.48Z"/>
  <path class="cls-10" d="m569.42,736.44s-12.69-48.14,0-80.74c11.06-28.41,40.12-41.79,57.25-25.09,19.11,18.62,22.01,103.11,22.01,103.11l-79.26,2.71Z"/>
  <path class="cls-10" d="m775.87,736.44s1.66-70.94,12.84-88.04c6.24-9.54,56.77-50.53,78.24,21.73,23.76,79.96-44.47,81.33-44.47,81.33l-46.61-15.02Z"/>
  <ellipse class="cls-8" cx="820.11" cy="676.59" rx="16.48" ry="13.45"/>
  <circle class="cls-8" cx="601.73" cy="662.5" r="14.1"/>
  <ellipse id="nose" class="cls-4" cx="698.01" cy="1130.88" rx="447.38" ry="427.83"/>
  <path class="cls-3" d="m676.33,867.43s-40.66-52.37-79.69-50.74"/>
  <path class="cls-3" d="m711.46,867.43s14.64-37.16,71.89-50.78"/>
</svg>