<?xml version="1.0" encoding="UTF-8"?>
<svg id="vinil" xmlns="http://www.w3.org/2000/svg" viewBox="0 0 1618.12 1618.13">
  <defs>
    <style>
      .disco001 {
        fill: #fdfbe4;
      }

      .disco002, .disco003, .disco004 {
        fill: #fff;
      }

      .disco003 {
        opacity: .1;
      }

      .disco005 {
        fill: none;
        stroke: #010101;
        stroke-miterlimit: 10;
        stroke-width: 1.81px;
      }

      .disco006 {
        fill: #c55e4d;
      }

      .disco007 {
        fill: #242424;
      }

      .disco004 {
        opacity: .15;
      }

      .disco008 {
        fill: #abba37;
      }
    </style>
  </defs>
  <g id="vinil01">
    <g>
      <path class="disco007" d="m1548.64,1137.3c-39.15,88.42-94.89,171.21-167.56,243.87-72.66,72.66-155.45,128.41-243.7,167.56-296.96,131.72-656.96,75.98-900.33-167.56-32.35-32.35-61.55-66.86-87.26-103.02C31.5,1112.25-16.77,911.68,5.13,717.57c9.46-83.28,31.69-165.4,67.02-243.04,38.99-86.1,93.9-166.89,164.9-237.57,70.67-70.84,151.47-125.75,237.57-164.74C772.57-63.14,1135.89-8.23,1381.09,236.97c243.54,243.54,299.45,603.54,167.56,900.33Z"/>
      <circle class="disco003" cx="809.04" cy="809.04" r="442.96" transform="translate(-335.12 809.04) rotate(-45)"/>
      <g id="discreflection">
        <path class="disco003" d="m820.28,809.15L1127.92,62.51c187.55,79.63,333.52,225.4,416.29,402.33l-723.93,344.31Z"/>
        <path class="disco004" d="m827.47,818l68.23,20.87,254.94,77.96,91.95,27.96,350.25,107.01c-27.96,90.43-72.33,177.41-133.86,256.47-61.34,79.04-134.59,143.61-215.06,193.12l-190.41-312.76-50.09-82.11-138.79-227.61-37.15-60.92Z"/>
      </g>
      <circle class="disco007" cx="809.03" cy="809.04" r="378.74" transform="translate(-335.12 809.04) rotate(-45)"/>
      <circle class="disco006" cx="809.04" cy="809.04" r="346.74" transform="translate(-335.12 809.04) rotate(-45)"/>
      <circle id="yellowglo" class="disco008" cx="809.04" cy="809.04" r="272" transform="translate(-335.12 809.04) rotate(-45)"/>
      <ellipse class="disco006" cx="809.03" cy="809.04" rx="190.59" ry="190.59" transform="translate(-267.08 420.37) rotate(-25.14)"/>
      <circle class="disco005" cx="809.04" cy="809.04" r="649.2" transform="translate(-335.12 809.04) rotate(-45)"/>
      <circle class="disco005" cx="809.04" cy="809.04" r="579.28" transform="translate(-335.12 809.04) rotate(-45)"/>
      <circle class="disco002" cx="809.04" cy="809.04" r="80.48" transform="translate(-335.12 809.04) rotate(-45)"/>
    </g>
    <g id="classicmusicmixertext">
      <path class="disco001" d="m64.29,983.42c.96,1.12,2.24,3.51,3.06,6.78,1.91,7.58-1.44,14.49-10.26,16.71-8.42,2.12-15.55-2.15-17.65-10.48-.84-3.35-.66-5.64-.41-6.68l3.04.12c-.31,1.48-.31,3.47.25,5.71,1.59,6.3,6.67,9.47,13.73,7.7,6.58-1.66,9.86-6.51,8.21-13.05-.53-2.11-1.51-4.16-2.54-5.38l2.57-1.41Z"/>
      <path class="disco001" d="m35.82,985.6l-.81-3.53,28.46-6.51.81,3.53-28.46,6.51Z"/>
      <path class="disco001" d="m59.9,958.97l-2.4.79.03.12c1.76.77,3.56,2.58,4.14,5.35.82,3.95-1.54,6.54-4.35,7.13-4.71.98-8.16-2.67-9.69-10.21l-.4.08c-1.61.34-4.42,1.38-3.59,5.37.38,1.81,1.33,3.59,2.51,4.77l-2.17,1.29c-1.38-1.39-2.55-3.58-3.07-6.04-1.24-5.96,2.52-8.26,6.43-9.07l7.29-1.52c1.69-.35,3.33-.78,4.6-1.3l.67,3.22Zm-9.84,2.6c.72,3.88,2.32,8.13,6.11,7.34,2.29-.48,3.06-2.24,2.69-4.05-.53-2.54-2.48-3.81-4.24-4.03-.39-.05-.81-.04-1.17.03l-3.38.7Z"/>
      <path class="disco001" d="m54.68,951.65c.5-1.18.88-3.17.55-4.95-.48-2.59-1.99-3.56-3.61-3.27-1.7.31-2.44,1.49-2.93,4.3-.61,3.75-2.24,5.76-4.59,6.2-3.15.58-6.21-1.49-6.99-5.7-.36-1.98-.12-3.83.33-5.04l2.75.41c-.34.86-.73,2.39-.4,4.21.39,2.1,1.82,3.05,3.27,2.79,1.62-.3,2.13-1.6,2.63-4.33.67-3.63,2.05-5.69,4.96-6.22,3.44-.63,6.36,1.59,7.21,6.24.39,2.14.23,4.22-.32,5.75l-2.88-.39Z"/>
      <path class="disco001" d="m51.79,935.67c.52-1.17.95-3.15.66-4.94-.42-2.6-1.92-3.6-3.54-3.34-1.7.28-2.47,1.44-3.02,4.24-.69,3.73-2.36,5.71-4.72,6.1-3.17.51-6.18-1.62-6.86-5.84-.32-1.99-.04-3.83.44-5.03l2.74.47c-.36.85-.78,2.38-.48,4.2.34,2.11,1.75,3.09,3.21,2.85,1.62-.26,2.16-1.56,2.72-4.27.75-3.62,2.17-5.64,5.09-6.11,3.45-.56,6.32,1.73,7.08,6.39.35,2.15.14,4.23-.45,5.74l-2.86-.45Z"/>
      <path class="disco001" d="m27.05,918.28c1.21-.22,2.32.54,2.53,1.96.18,1.26-.67,2.3-1.89,2.48-1.26.18-2.37-.61-2.56-1.92-.19-1.34.66-2.34,1.92-2.52Zm25.81.34l-19.7,2.85-.52-3.58,19.7-2.85.52,3.58Z"/>
      <path class="disco001" d="m49,895.23c.61.88,1.52,2.88,1.86,5.53.75,5.96-2.8,10.34-8.84,11.1-6.08.77-11.01-2.84-11.82-9.29-.27-2.12.03-4.07.39-5.11l2.88.47c-.38.92-.66,2.32-.41,4.28.57,4.53,4.22,6.55,8.35,6.04,4.57-.58,7.01-3.87,6.52-7.79-.26-2.04-.96-3.32-1.53-4.28l2.61-.95Z"/>
      <path class="disco001" d="m45.35,861.5c.71,1.55,1.92,4.62,2.23,8.35.35,4.18-.42,7.71-2.77,10.63-2.09,2.57-5.66,4.36-9.96,4.72-8.24.66-14.74-4.49-15.53-13.75-.27-3.2.21-5.75.69-6.99l2.98.61c-.53,1.53-.91,3.42-.67,6.21.57,6.72,5.12,10.75,12.04,10.17,7.01-.59,10.79-5.16,10.25-11.6-.2-2.34-.66-3.91-1.14-4.69l-8.24.7.48,5.61-2.87.24-.77-9.1,13.28-1.12Z"/>
      <path class="disco001" d="m45.68,844.95l-2.49.42v.12c1.63,1.03,3.14,3.09,3.29,5.92.22,4.02-2.51,6.23-5.38,6.38-4.8.26-7.66-3.87-8.03-11.55l-.41.02c-1.64.09-4.58.7-4.36,4.76.1,1.85.78,3.75,1.76,5.09l-2.34.95c-1.16-1.59-1.98-3.93-2.12-6.43-.33-6.08,3.74-7.78,7.72-7.99l7.43-.4c1.72-.09,3.4-.26,4.75-.58l.18,3.29Zm-10.11,1.08c.13,3.95,1.07,8.38,4.93,8.18,2.34-.13,3.37-1.75,3.27-3.59-.14-2.59-1.87-4.14-3.58-4.63-.38-.1-.79-.16-1.16-.14l-3.45.19Z"/>
      <path class="disco001" d="m30.68,836.64c-2.06.04-3.74.11-5.38.26l-.06-3.17,3.2-.22v-.12c-1.91-1.08-3.72-2.89-3.78-6.18-.05-2.71,1.56-4.8,3.88-5.71v-.08c-1.12-.6-2-1.36-2.63-2.17-.93-1.17-1.44-2.48-1.48-4.37-.05-2.63,1.61-6.57,8.51-6.7l11.72-.22.06,3.54-11.26.21c-3.82.07-6.1,1.51-6.05,4.43.04,2.06,1.59,3.63,3.37,4.21.5.16,1.16.27,1.81.25l12.29-.23.07,3.54-11.92.22c-3.17.06-5.44,1.5-5.39,4.25.04,2.26,1.88,3.87,3.7,4.41.54.2,1.16.27,1.77.26l12-.22.07,3.54-14.51.27Z"/>
      <path class="disco001" d="m35.54,800.18c4.89,0,6.96-3.09,7.03-6.7.05-2.59-.38-4.16-.93-5.53l2.6-.57c.55,1.28,1.17,3.48,1.12,6.64-.11,6.13-4.2,9.72-10.2,9.61-6-.1-10.67-3.72-10.57-9.52.11-6.5,5.86-8.12,9.52-8.06.74.01,1.31.11,1.68.15l-.24,13.98Zm-2.41-10.65c-2.3-.08-5.9.84-5.97,4.91-.06,3.66,3.28,5.32,5.78,5.65l.18-10.57Z"/>
      <path class="disco001" d="m34.84,749.13c-3.87-.04-8.53-.09-11.97-.35v.12c3.17,1.15,6.55,2.52,10.28,4.16l13.11,5.74-.17,2.71-13.46,3.63c-3.98,1.07-7.62,1.95-10.96,2.52v.08c3.44.3,8.06.8,12.19,1.31l11.81,1.5-.22,3.41-27.54-3.69.29-4.56,13.68-3.87c3.48-.93,6.58-1.68,9.5-2.2v-.12c-2.74-.88-5.71-2.05-9.12-3.51l-13.07-5.78.29-4.56,27.77.04-.22,3.49-12.19-.08Z"/>
      <path class="disco001" d="m22.86,733.72c1.23.07,2.13,1.06,2,2.5-.12,1.27-1.18,2.08-2.41,1.97-1.27-.12-2.16-1.15-2.04-2.46.12-1.35,1.19-2.12,2.46-2Zm25.01,6.36l-19.81-1.83.33-3.6,19.81,1.83-.33,3.6Z"/>
      <path class="disco001" d="m29.16,726.73l4.56-2.35c1.19-.61,2.28-1.11,3.45-1.64v-.12c-1.1-.79-2.05-1.55-3.04-2.33l-3.9-3.25.43-3.88,8.81,7.81,10.99-5.81-.46,4.09-4.78,2.41c-1.23.65-2.41,1.18-3.67,1.74v.08c1.1.79,2.09,1.6,3.19,2.47l4.14,3.36-.44,3.96-9.31-8.15-10.43,5.62.45-4Z"/>
      <path class="disco001" d="m41.9,709.21c4.86.58,7.28-2.24,7.77-5.83.35-2.57.11-4.18-.27-5.6l2.65-.26c.4,1.34.75,3.59.32,6.73-.83,6.07-5.32,9.15-11.27,8.34-5.95-.81-10.16-4.96-9.37-10.7.88-6.44,6.78-7.37,10.4-6.88.73.1,1.29.26,1.65.35l-1.89,13.85Zm-1.13-10.86c-2.28-.35-5.95.14-6.51,4.17-.5,3.63,2.63,5.67,5.08,6.3l1.43-10.47Z"/>
      <path class="disco001" d="m40.17,690.06c-2.31-.37-4.31-.64-6.16-.81l.5-3.13,3.88.49.03-.16c-2.5-1.31-3.82-3.73-3.44-6.13.06-.41.15-.68.28-1l3.37.54c-.14.35-.24.71-.31,1.2-.4,2.52,1.22,4.61,3.83,5.52.47.16,1.03.33,1.64.43l10.48,1.67-.56,3.53-13.53-2.15Z"/>
    </g>
  </g>
                                      <h5>Vinil</h5>
</svg>
