<?xml version="1.0" encoding="UTF-8"?>
<svg id="pausebutton" xmlns="http://www.w3.org/2000/svg" viewBox="0 0 1408.46 1566.47">
  <defs>
    <style>
      .cls-1 {
        fill: #2e9479;
      }
    </style>
  </defs>
  <path id="pause001" class="cls-1" d="m1132.66,1516.21h-291.67c-9.94,0-18-8.06-18-18V68.26c0-9.94,8.06-18,18-18h291.67c9.94,0,18,8.06,18,18v1429.94c0,9.94-8.06,18-18,18Zm-547.19-18V68.26c0-9.94-8.06-18-18-18h-291.67c-9.94,0-18,8.06-18,18v1429.94c0,9.94,8.06,18,18,18h291.67c9.94,0,18-8.06,18-18Z"/>
</svg>