<?xml version="1.0" encoding="UTF-8"?>
<svg id="playbt001" xmlns="http://www.w3.org/2000/svg" viewBox="0 0 1618.12 1618.13">
  <defs>
    <style>
      .playbtn1 {
        fill: #cae8f9;
      }

      .playbtn2 {
        fill: #2e9479;
      }

      .playbtn3 {
        fill: #72ba81;
      }

      .playbtn4 {
        fill: #88c87a;
      }

    </style>
  </defs>
  <path id="playmiddle1" class="playbtn4" d="m1488.47,870.27h-125.07v118.36h-243.08v125.31h-248.26v123.42h-244.96v125.78h-246.96v118.71h-122.6v-118.71h-123.66V250.21h123.66v-116.59h122.6v116.59h246.96v128.25h244.96v125.07h248.26v122.21h243.08v122.21h125.07v122.31Z"/>
  <polygon id="playgradient1" class="playbtn3" points="1494.18 738.28 1372.38 738.28 1372.38 621.97 993.14 621.97 993.14 738.28 879.65 738.28 879.65 877.15 630.51 877.15 630.51 987.92 270.66 987.92 270.66 1112.74 123.94 1112.74 123.94 1367.48 256.82 1367.48 256.82 1501.39 395.22 1501.39 395.22 1367.48 641.59 1367.48 641.59 1252.86 882.42 1252.86 882.42 1120.39 1128.78 1120.39 1128.78 1033.31 1372.38 1033.31 1372.38 877.15 1494.18 877.15 1494.18 738.28"/>
  <rect id="playreflection" class="playbtn1" x="255.68" y="133.62" width="124.84" height="577.99"/>
  <path id="playstroke1" class="playbtn2" d="m1488.47,619.07v-115.53h-241.9v-125.07h-242.84v-128.25h-252.97v-116.59h-239.54V8.55H133.89v125.07H6.7v1356.71h127.19v119.42h368.85v-127.9h248.02v-115.89h252.97v-128.6h242.84v-123.42h245.43v-125.31h121.54v-369.56h-125.07Zm0,251.2h-125.07v118.36h-243.08v125.31h-248.26v123.42h-244.96v125.78h-246.96v118.71h-122.6v-118.71h-123.66V250.21h123.66v-116.59h122.6v116.59h246.96v128.25h244.96v125.07h248.26v122.21h243.08v122.21h125.07v122.31Z"/>
</svg>