<?xml version="1.0" encoding="UTF-8"?>
<svg id="oldtape" data-name="Layer 2" xmlns="http://www.w3.org/2000/svg" viewBox="0 0 1660.79 1660.76">
  <defs>
    <style>
      .cls-1 {
        fill: #59a4a0;
      }
    </style>
  </defs>
  <g id="vinil">
    <g id="middletape">
      <path id="rounded" class="cls-1" d="m830.38,0C371.77,0,0,371.77,0,830.38s371.77,830.38,830.38,830.38,830.41-371.74,830.41-830.38S1289.02,0,830.38,0Zm0,1471.07c-353.79,0-640.69-286.86-640.69-640.69S476.59,189.73,830.38,189.73s640.69,286.86,640.69,640.65-286.86,640.69-640.69,640.69Z"/>
      <path id="tapemiddle" class="cls-1" d="m636.76,379.62l-73.27-213.56h533.84l-73.24,213.56h-387.33Zm0,913.46l-73.27,213.5h533.84l-73.24-213.5h-387.33Zm680.77-550.58l218.11-58.26-297.62-443.14-136.4,179.85,215.92,321.55Zm-974.24,187.73l-218.14,58.2,297.65,443.18,136.4-179.89-215.92-321.49Zm798.47,292.26l153.73,165.34,251.81-470.71-222.85-36.13-182.7,341.5ZM519.03,450.14l-153.73-165.27-251.81,470.67,222.85,36.1,182.7-341.5Z"/>
    </g>
  </g>
</svg>